<svg width="18" height="18" viewBox="0 0 18 18" fill="none" xmlns="http://www.w3.org/2000/svg">
<g id="fi_3135905" clip-path="url(#clip0_705_71148)">
<g id="Group">
<path id="Vector" d="M14.8359 0.344238V3.19938H17.6911L14.8359 0.344238Z" fill="#7D8FB3"/>
<path id="Vector_2" d="M11.2035 13.092C11.9412 12.2927 12.3926 11.2255 12.3926 10.0547C12.3926 7.58306 10.3818 5.57227 7.91016 5.57227C5.43853 5.57227 3.42773 7.58306 3.42773 10.0547C3.42773 11.2255 3.87914 12.2927 4.61682 13.092C4.77907 12.2075 5.36586 11.4967 6.14668 11.1549C5.82093 10.7598 5.625 10.254 5.625 9.70312C5.625 8.44309 6.65012 7.41797 7.91016 7.41797C9.17019 7.41797 10.1953 8.44309 10.1953 9.70312C10.1953 10.2539 9.99939 10.7598 9.67363 11.1549C10.4545 11.4967 11.0412 12.2075 11.2035 13.092Z" fill="#7D8FB3"/>
<path id="Vector_3" d="M7.91016 10.9336C8.58973 10.9336 9.14062 10.3827 9.14062 9.70312C9.14062 9.02356 8.58973 8.47266 7.91016 8.47266C7.23059 8.47266 6.67969 9.02356 6.67969 9.70312C6.67969 10.3827 7.23059 10.9336 7.91016 10.9336Z" fill="#7D8FB3"/>
<path id="Vector_4" d="M5.649 13.3081L5.55566 13.8673C6.24033 14.2917 7.04706 14.5371 7.91011 14.5371C8.77316 14.5371 9.57986 14.2917 10.2646 13.8673L10.1713 13.308C10.0436 12.5433 9.38836 11.9883 8.61324 11.9883H7.20699C6.4319 11.9883 5.77666 12.5433 5.649 13.3081Z" fill="#7D8FB3"/>
<path id="Vector_5" d="M14.3086 4.25391C14.0174 4.25391 13.7812 4.0178 13.7812 3.72656V0.0351562H5.51953C4.84105 0.0351562 4.28906 0.587145 4.28906 1.26562V5.86902C5.26057 5.02741 6.52693 4.51758 7.91016 4.51758C8.95145 4.51758 9.9264 4.8067 10.7593 5.30859H15.3633C15.6545 5.30859 15.8906 5.5447 15.8906 5.83594C15.8906 6.12717 15.6545 6.36328 15.3633 6.36328H12.0335C12.3205 6.68363 12.5712 7.03726 12.7782 7.41797H15.3633C15.6545 7.41797 15.8906 7.65408 15.8906 7.94531C15.8906 8.23655 15.6545 8.47266 15.3633 8.47266H13.2166C13.3179 8.81184 13.3876 9.16453 13.422 9.52734H15.3633C15.6545 9.52734 15.8906 9.76345 15.8906 10.0547C15.8906 10.3459 15.6545 10.582 15.3633 10.582H13.422C13.3876 10.9448 13.3179 11.2975 13.2166 11.6367H15.3633C15.6545 11.6367 15.8906 11.8728 15.8906 12.1641C15.8906 12.4553 15.6545 12.6914 15.3633 12.6914H12.7782C11.8395 14.4175 10.0094 15.5918 7.91016 15.5918C7.15637 15.5918 6.43739 15.4402 5.7818 15.1662L4.28906 16.6589V16.7344C4.28906 17.4129 4.84105 17.9648 5.51953 17.9648H16.7695C17.448 17.9648 18 17.4129 18 16.7344V4.25391H14.3086ZM12.1992 4.25391H6.92578C6.63455 4.25391 6.39844 4.0178 6.39844 3.72656C6.39844 3.43533 6.63455 3.19922 6.92578 3.19922H12.1992C12.4905 3.19922 12.7266 3.43533 12.7266 3.72656C12.7266 4.0178 12.4905 4.25391 12.1992 4.25391ZM15.3633 14.8008H12.5508C12.2595 14.8008 12.0234 14.5647 12.0234 14.2734C12.0234 13.9822 12.2595 13.7461 12.5508 13.7461H15.3633C15.6545 13.7461 15.8906 13.9822 15.8906 14.2734C15.8906 14.5647 15.6545 14.8008 15.3633 14.8008Z" fill="#7D8FB3"/>
<path id="Vector_6" d="M3.32202 13.1514L0.308918 16.1645C-0.102973 16.5764 -0.102973 17.2442 0.308918 17.656C0.720809 18.0679 1.3886 18.0679 1.80046 17.656L4.81356 14.6429C4.22652 14.2455 3.71946 13.7384 3.32202 13.1514Z" fill="#7D8FB3"/>
</g>
</g>
<defs>
<clipPath id="clip0_705_71148">
<rect width="18" height="18" fill="white"/>
</clipPath>
</defs>
</svg>
