<svg width="18" height="18" viewBox="0 0 18 18" fill="none" xmlns="http://www.w3.org/2000/svg">
<g id="03 dashboard, layout, grid">
<path id="Vector" d="M8.18182 2.45455V5.72727C8.18182 6.37826 7.92322 7.00258 7.4629 7.4629C7.00258 7.92322 6.37826 8.18182 5.72727 8.18182H2.45455C1.80356 8.18182 1.17924 7.92322 0.71892 7.4629C0.258603 7.00258 0 6.37826 0 5.72727V2.45455C0 1.80356 0.258603 1.17924 0.71892 0.71892C1.17924 0.258603 1.80356 0 2.45455 0H5.72727C6.37826 0 7.00258 0.258603 7.4629 0.71892C7.92322 1.17924 8.18182 1.80356 8.18182 2.45455ZM15.5455 0H12.2727C11.6217 0 10.9974 0.258603 10.5371 0.71892C10.0768 1.17924 9.81818 1.80356 9.81818 2.45455V5.72727C9.81818 6.37826 10.0768 7.00258 10.5371 7.4629C10.9974 7.92322 11.6217 8.18182 12.2727 8.18182H15.5455C16.1964 8.18182 16.8208 7.92322 17.2811 7.4629C17.7414 7.00258 18 6.37826 18 5.72727V2.45455C18 1.80356 17.7414 1.17924 17.2811 0.71892C16.8208 0.258603 16.1964 0 15.5455 0ZM5.72727 9.81818H2.45455C1.80356 9.81818 1.17924 10.0768 0.71892 10.5371C0.258603 10.9974 0 11.6217 0 12.2727V15.5455C0 16.1964 0.258603 16.8208 0.71892 17.2811C1.17924 17.7414 1.80356 18 2.45455 18H5.72727C6.37826 18 7.00258 17.7414 7.4629 17.2811C7.92322 16.8208 8.18182 16.1964 8.18182 15.5455V12.2727C8.18182 11.6217 7.92322 10.9974 7.4629 10.5371C7.00258 10.0768 6.37826 9.81818 5.72727 9.81818ZM15.5455 9.81818H12.2727C11.6217 9.81818 10.9974 10.0768 10.5371 10.5371C10.0768 10.9974 9.81818 11.6217 9.81818 12.2727V15.5455C9.81818 16.1964 10.0768 16.8208 10.5371 17.2811C10.9974 17.7414 11.6217 18 12.2727 18H15.5455C16.1964 18 16.8208 17.7414 17.2811 17.2811C17.7414 16.8208 18 16.1964 18 15.5455V12.2727C18 11.6217 17.7414 10.9974 17.2811 10.5371C16.8208 10.0768 16.1964 9.81818 15.5455 9.81818Z" fill="#7D8FB3"/>
</g>
</svg>
