<svg width="157" height="31" viewBox="0 0 157 31" fill="none" xmlns="http://www.w3.org/2000/svg">
<g id="Group">
<g id="Group_2">
<path id="Vector" d="M64.6666 8.02344C66.7336 8.02926 68.495 8.78328 69.9885 10.1894C70.5678 10.7338 70.5969 11.6392 70.0379 12.204C68.5998 13.6597 67.15 15.1037 65.6914 16.5389C65.0975 17.1241 64.2008 17.1124 63.6331 16.5535C63.0538 15.98 63.0654 15.0862 63.671 14.4748C64.6113 13.5258 65.5575 12.5796 66.5153 11.6451C66.7278 11.4384 66.7453 11.3452 66.4425 11.2317C64.7074 10.5883 63.0858 10.7833 61.6651 11.977C60.1891 13.2172 59.6825 14.8475 60.1542 16.699C60.6054 18.472 61.7932 19.6161 63.5807 20.047C65.2169 20.44 66.6725 20.0092 67.9156 18.8709C68.3552 18.4662 68.8676 18.3352 69.4353 18.539C69.971 18.7311 70.2854 19.13 70.3727 19.6889C70.4601 20.2392 70.2301 20.6788 69.8429 21.0485C67.2984 23.4649 63.2314 23.7618 60.3783 21.7385C55.8396 18.5215 56.0987 11.8867 60.8849 9.0453C62.0407 8.35532 63.31 8.02344 64.6666 8.02344Z" fill="#2F4362"/>
<path id="Vector_2" d="M42.1016 15.5171C42.1045 11.7644 44.9197 8.57367 48.6519 8.09622C51.0625 7.78762 53.1382 8.51544 54.9083 10.1458C55.5633 10.7484 55.575 11.6392 54.9403 12.2768C53.5429 13.6771 52.1397 15.0746 50.7364 16.4691C50.0872 17.1124 49.1789 17.1386 48.5908 16.5418C47.9998 15.9421 48.0464 15.0658 48.7073 14.4079C49.6243 13.4908 50.5385 12.5709 51.4671 11.6625C51.6797 11.4558 51.7525 11.3539 51.3973 11.2258C49.6592 10.5912 48.0406 10.7892 46.6228 11.9857C45.1497 13.2288 44.6489 14.862 45.1264 16.7107C45.5805 18.4837 46.7713 19.622 48.5617 20.0499C50.1687 20.4342 51.6069 20.0208 52.8325 18.9116C53.2489 18.5361 53.7088 18.3497 54.2649 18.4953C55.409 18.7981 55.7293 20.1489 54.8588 20.999C54.2824 21.5638 53.6186 22.015 52.8879 22.3586C47.8426 24.7167 42.0957 21.0689 42.1016 15.5171Z" fill="#2F4362"/>
<path id="Vector_3" d="M107.139 8.02657C109.192 8.03239 110.939 8.78932 112.426 10.1751C113.02 10.7282 113.049 11.6395 112.473 12.2217C111.044 13.6657 109.602 15.101 108.156 16.5275C107.544 17.1301 106.639 17.1214 106.068 16.545C105.503 15.9714 105.527 15.0748 106.132 14.4634C107.075 13.5143 108.022 12.5682 108.974 11.6336C109.169 11.4415 109.192 11.3629 108.907 11.2377C106.933 10.3876 104.525 11.0776 103.276 12.868C102.024 14.6643 102.202 17.1447 103.687 18.6964C105.512 20.6004 108.31 20.6877 110.316 18.906C111.215 18.1083 112.467 18.4111 112.779 19.5145C112.95 20.1171 112.744 20.6237 112.298 21.0312C110.691 22.5014 108.793 23.2234 106.613 23.0546C102.499 22.7343 99.5119 19.4446 99.5702 15.3513C99.6197 11.7355 102.499 8.53895 106.091 8.09644C106.444 8.05277 106.79 8.02366 107.139 8.02657Z" fill="#2F4362"/>
<path id="Vector_4" d="M0.00141269 15.4998C-0.0102324 12.1984 2.24601 9.24053 5.43677 8.33804C7.562 7.7354 9.56496 8.0178 11.4631 9.11244C12.1647 9.51711 12.3743 10.3614 11.9726 11.0543C11.5621 11.7617 10.7033 11.9888 9.99583 11.5783C7.11949 9.9043 3.559 11.488 2.95054 14.7108C2.34208 17.9307 5.24463 20.7663 8.4645 20.1112C9.02347 19.9977 9.53003 19.7677 10.022 19.4941C10.7615 19.0836 11.5912 19.2815 12.0133 19.9802C12.4238 20.6586 12.2317 21.5028 11.5359 21.9337C7.03797 24.7285 1.22124 22.1724 0.155711 17.0923C0.0509046 16.5682 -0.0102324 16.0355 0.00141269 15.4998Z" fill="#2F4362"/>
<path id="Vector_5" d="M75.1128 9.56039C76.123 8.82384 77.1885 8.37842 78.3414 8.14842C78.8014 8.05526 79.2672 8.00286 79.7359 8.03197C80.5278 8.08146 81.1333 8.70448 81.1362 9.4585C81.1362 10.2329 80.5132 10.8646 79.698 10.8734C78.2744 10.8879 77.0924 11.4323 76.1667 12.4891C75.4796 13.2723 75.0808 14.1777 75.0953 15.2549C75.1186 17.3102 75.1069 19.3656 75.1011 21.4239C75.0982 22.2972 74.7052 22.8591 74.0036 23.0309C73.0603 23.2638 72.184 22.6291 72.1695 21.6626C72.1462 20.0206 72.1607 18.3787 72.1607 16.7367C72.1607 14.3465 72.1549 11.9564 72.1636 9.56622C72.1666 8.66663 72.8129 8.01742 73.6571 8.02906C74.3151 8.0378 74.9235 8.54145 75.0633 9.18775C75.0808 9.28965 75.0895 9.39154 75.1128 9.56039Z" fill="#2F4362"/>
<path id="Vector_6" d="M36.0311 9.56085C36.9394 8.91163 37.8943 8.47494 38.9278 8.22457C39.4489 8.09938 39.9788 8.0266 40.5145 8.02951C41.3966 8.03534 42.0342 8.6205 42.0487 9.43566C42.0633 10.2566 41.4519 10.8505 40.5611 10.8767C38.3194 10.9495 36.4561 12.4692 36.0573 14.5537C36.0253 14.7225 36.0165 14.8972 36.0165 15.069C36.0136 17.2466 36.0224 19.4213 36.0078 21.599C36.002 22.6179 35.1257 23.273 34.1504 23.0255C33.6206 22.8916 33.181 22.4171 33.1053 21.8785C33.082 21.7213 33.0762 21.5582 33.0762 21.3981C33.0732 17.4999 33.0762 13.5988 33.0732 9.70059C33.0732 9.27845 33.1198 8.87087 33.4284 8.54772C33.836 8.12268 34.3222 7.90433 34.9103 8.07901C35.6031 8.28862 35.9729 8.77189 36.0311 9.56085Z" fill="#2F4362"/>
<path id="Vector_7" d="M135.274 15.7269C135.274 17.7153 135.279 19.7066 135.271 21.695C135.268 22.6237 134.619 23.2351 133.719 23.1943C133.14 23.1681 132.616 22.7547 132.453 22.1899C132.394 21.9832 132.374 21.7736 132.374 21.5553C132.377 17.6047 132.377 13.6512 132.374 9.70056C132.374 9.1183 132.587 8.65541 133.081 8.34972C134.022 7.77038 135.23 8.41668 135.271 9.51715C135.294 10.0907 135.277 10.6642 135.277 11.2406C135.274 12.737 135.274 14.2305 135.274 15.7269Z" fill="#2F4362"/>
<path id="Vector_8" d="M135.271 4.98103C135.265 5.78454 134.604 6.42794 133.806 6.41047C133.029 6.393 132.383 5.74087 132.377 4.9723C132.374 4.18043 133.035 3.52539 133.833 3.52539C134.639 3.53121 135.277 4.17461 135.271 4.98103Z" fill="#2F4362"/>
<path id="Vector_9" d="M96.5044 11.1647C95.5175 9.78186 94.1987 8.83278 92.5655 8.35242C90.088 7.6246 87.8172 8.12243 85.7181 9.61301C85.7036 9.45871 85.6948 9.3539 85.6803 9.25201C85.5376 8.1923 84.3149 7.65372 83.4473 8.27964C82.9874 8.61153 82.8418 9.08315 82.8418 9.64503C82.8505 16.1255 82.8476 22.6031 82.8476 29.0836C82.8476 29.2292 82.8447 29.3777 82.8593 29.5232C82.9437 30.3588 83.788 30.9439 84.6002 30.7343C85.3164 30.548 85.6919 30.0182 85.6948 29.171C85.6978 26.6323 85.6948 24.0937 85.6948 21.4619C87.3339 22.6584 89.0807 23.232 91.0487 23.0398C93.0284 22.8477 94.7111 22.0354 96.0124 20.5478C98.4055 17.817 98.586 14.0847 96.5044 11.1647ZM90.318 20.1809C87.6687 20.1489 85.6133 17.9596 85.7036 15.3861C85.7938 12.8183 87.9278 10.8066 90.4781 10.8852C93.0604 10.9638 95.1099 13.092 95.0313 15.6102C94.976 18.178 92.9003 20.213 90.318 20.1809Z" fill="#2F4362"/>
<path id="Vector_10" d="M129.667 2.07579C129.667 1.91567 129.661 1.75555 129.641 1.59543C129.519 0.643438 128.543 0.090295 127.667 0.483318C127.059 0.754067 126.811 1.24316 126.811 1.89238C126.814 4.32329 126.814 6.75421 126.814 9.18513C126.814 9.32487 126.814 9.46752 126.814 9.68587C125.12 8.43402 123.286 7.88961 121.262 8.1196C119.216 8.3525 117.524 9.28702 116.226 10.8824C114.028 13.587 114.01 17.4968 116.162 20.2189C117.242 21.5872 118.63 22.5042 120.328 22.8973C122.674 23.4446 124.831 22.9759 126.797 21.5028C126.802 21.6425 126.802 21.7211 126.811 21.7968C126.878 22.4111 127.195 22.8507 127.786 23.0428C128.354 23.2291 128.869 23.0952 129.289 22.6527C129.606 22.3179 129.667 21.9045 129.667 21.4649C129.667 15.0048 129.67 8.54174 129.667 2.07579ZM122.153 20.2655C119.428 20.2509 117.448 18.0645 117.483 15.5725C117.483 13.0251 119.568 10.961 122.141 10.961C124.709 10.961 126.794 13.0426 126.811 15.6249C126.829 18.1257 124.706 20.28 122.153 20.2655Z" fill="#2F4362"/>
<path id="Vector_11" d="M152.235 20.6235C151.964 20.344 151.696 20.0645 151.402 19.8113C151.201 19.6395 151.193 19.5085 151.329 19.2814C151.987 18.1809 152.322 16.9873 152.319 15.7005C152.322 11.1502 148.307 8.04096 144.264 8.5679C140.869 9.01042 138.173 11.8518 138.007 15.2551C137.742 20.6177 143.172 24.3354 148.107 22.1781C148.471 22.018 148.805 21.5668 149.187 21.7327C149.551 21.8899 149.813 22.3004 150.104 22.6148C150.738 23.3048 151.626 23.3718 152.27 22.7662C152.878 22.1869 152.867 21.2756 152.235 20.6235ZM145.082 19.9044C142.715 19.884 140.791 17.9189 140.814 15.5521C140.837 13.1444 142.811 11.2113 145.216 11.2346C147.603 11.2579 149.516 13.2143 149.501 15.619C149.489 18.015 147.516 19.9277 145.082 19.9044Z" fill="#2F4362"/>
<path id="Vector_12" d="M29.6705 20.6874C29.3968 20.3934 29.1144 20.1081 28.8116 19.8431C28.5991 19.6568 28.5584 19.5113 28.7185 19.2463C29.3706 18.1604 29.685 16.9697 29.6967 15.6131C29.6821 15.386 29.6792 15.0628 29.6355 14.7455C29.0533 10.53 25.2249 8.10487 21.6412 8.56485C18.1389 9.0161 15.3936 12.038 15.3703 15.5694C15.3382 20.8184 20.6892 24.2916 25.5073 22.1663C25.8625 22.0091 26.1769 21.5404 26.5845 21.7442C26.9368 21.9189 27.1813 22.309 27.4724 22.603C27.4812 22.6118 27.487 22.6263 27.4957 22.6351C28.0722 23.293 28.9747 23.3629 29.6006 22.7981C30.2265 22.2362 30.2615 21.3192 29.6705 20.6874ZM22.5029 19.9043C20.1098 19.8985 18.1534 17.9275 18.1826 15.5577C18.2117 13.1618 20.1622 11.2287 22.5437 11.2345C24.9513 11.2403 26.8931 13.2025 26.8815 15.6101C26.8727 17.9857 24.9105 19.9101 22.5029 19.9043Z" fill="#E76A00"/>
<g id="Group_3">
<path id="Vector_13" d="M152.718 0C150.809 0 149.26 1.5488 149.26 3.4586C149.26 5.3684 150.809 6.9172 152.718 6.9172C154.628 6.9172 156.177 5.3684 156.177 3.4586C156.177 1.5488 154.628 0 152.718 0ZM152.715 6.26507C151.175 6.25051 149.889 4.96082 149.909 3.44986C149.932 1.90106 151.193 0.655038 152.736 0.655038C154.279 0.655038 155.534 1.92144 155.528 3.47024C155.522 5.01031 154.247 6.27672 152.715 6.26507Z" fill="#2F4362"/>
<path id="Vector_14" d="M154.276 4.60855C154.139 4.41058 154.017 4.20097 153.871 4.01173C153.743 3.84579 153.731 3.76136 153.929 3.61289C154.317 3.31885 154.45 2.80355 154.276 2.39015C154.087 1.94764 153.746 1.69727 153.248 1.69145C152.768 1.68562 152.284 1.70018 151.804 1.68271C151.449 1.67107 151.324 1.8341 151.332 2.16307C151.341 2.56483 151.335 2.96367 151.335 3.36543H151.338C151.338 3.81959 151.33 4.27375 151.341 4.72791C151.347 4.91132 151.417 5.07726 151.647 5.06853C151.859 5.06271 151.9 4.9055 151.921 4.73664C151.929 4.66968 151.926 4.60272 151.929 4.53576C151.944 3.86326 151.944 3.88655 152.634 3.85453C152.986 3.83997 153.21 3.93604 153.37 4.25046C153.493 4.48627 153.659 4.6988 153.813 4.91714C153.918 5.06853 154.057 5.12675 154.226 5.01904C154.389 4.90841 154.386 4.76576 154.276 4.60855ZM153.234 3.37708C153.062 3.38581 152.887 3.37999 152.715 3.37999C152.701 3.37999 152.689 3.37999 152.675 3.37999C151.859 3.37999 151.868 3.37999 151.935 2.54445C151.95 2.36686 152.011 2.31737 152.177 2.32319C152.535 2.33193 152.896 2.32028 153.254 2.33193C153.586 2.34357 153.778 2.53281 153.775 2.86178C153.772 3.19658 153.56 3.35961 153.234 3.37708Z" fill="#2F4362"/>
</g>
</g>
</g>
</svg>
