<svg width="18" height="18" viewBox="0 0 18 18" fill="none" xmlns="http://www.w3.org/2000/svg">
<g id="fi_4415849" clip-path="url(#clip0_705_71172)">
<g id="Group">
<path id="Vector" d="M17.871 10.7287L16.7341 9.41808C17.5536 8.39299 18 7.12561 18 5.80078C18 2.60223 15.3978 0 12.1992 0C9.00063 0 6.39844 2.60223 6.39844 5.80078C6.39844 8.99933 9.00067 11.6016 12.1992 11.6016H17.4727C17.6792 11.6016 17.8667 11.481 17.9524 11.2932C18.0381 11.1053 18.0063 10.8847 17.871 10.7287ZM12.1992 9.38672C11.908 9.38672 11.6719 9.15061 11.6719 8.85938C11.6719 8.56814 11.908 8.33203 12.1992 8.33203C12.4905 8.33203 12.7266 8.56814 12.7266 8.85938C12.7266 9.15061 12.4905 9.38672 12.1992 9.38672ZM13.6664 5.5955C13.4094 5.86614 13.0821 6.05883 12.7266 6.15537V7.26279C12.7266 7.55402 12.4905 7.79013 12.1993 7.79013C11.908 7.79013 11.6719 7.55402 11.6719 7.26279V5.69865C11.6719 5.40742 11.908 5.17131 12.1993 5.17131C12.4673 5.17131 12.7166 5.06405 12.9016 4.86932C13.0863 4.67476 13.1803 4.41953 13.1664 4.15062C13.1402 3.64714 12.7243 3.24475 12.2195 3.23459C12.2129 3.23445 12.2063 3.23438 12.1997 3.23438C11.7175 3.23438 11.3068 3.58914 11.2402 4.06712C11.2339 4.11163 11.2308 4.1573 11.2308 4.20286C11.2308 4.49409 10.9947 4.7302 10.7035 4.7302C10.4122 4.7302 10.1761 4.49409 10.1761 4.20286C10.1761 4.10871 10.1827 4.01404 10.1956 3.92136C10.337 2.90805 11.2174 2.15912 12.2407 2.18011C13.2957 2.20138 14.165 3.04291 14.2196 4.09595C14.2487 4.65655 14.0522 5.18913 13.6664 5.5955Z" fill="#7D8FB3"/>
<path id="Vector_2" d="M7.5586 11.6721H4.04298C3.75174 11.6721 3.51563 11.436 3.51563 11.1448C3.51563 10.8535 3.75174 10.6174 4.04298 10.6174H7.32636C6.23669 9.51509 5.51694 8.04629 5.37153 6.41455C2.37267 6.63498 9.03207e-06 9.14528 9.03207e-06 12.1994C9.03207e-06 13.5243 0.446458 14.7916 1.26588 15.8167L0.128997 17.1273C-0.00631909 17.2834 -0.0381355 17.504 0.0476106 17.6918C0.133357 17.8797 0.320845 18.0002 0.527353 18.0002H5.80079C8.85499 18.0002 11.3653 15.6276 11.5857 12.6287C10.2732 12.5117 9.06631 12.023 8.07051 11.2694C8.01444 11.5004 7.80684 11.6721 7.5586 11.6721ZM7.5586 13.7815H4.04298C3.75174 13.7815 3.51563 13.5454 3.51563 13.2541C3.51563 12.9629 3.75174 12.7268 4.04298 12.7268H7.5586C7.84984 12.7268 8.08595 12.9629 8.08595 13.2541C8.08595 13.5454 7.84984 13.7815 7.5586 13.7815Z" fill="#7D8FB3"/>
</g>
</g>
<defs>
<clipPath id="clip0_705_71172">
<rect width="18" height="18" fill="white"/>
</clipPath>
</defs>
</svg>
