<svg width="18" height="18" viewBox="0 0 18 18" fill="none" xmlns="http://www.w3.org/2000/svg">
<g id="logout 1" clip-path="url(#clip0_705_71145)">
<path id="Vector" fill-rule="evenodd" clip-rule="evenodd" d="M8.8705 15.1332V16.0302C8.8705 16.7496 8.51198 17.3706 7.88897 17.7303C7.58923 17.9033 7.25468 17.9999 6.90783 18C6.56066 18.0002 6.22622 17.9035 5.92627 17.7303L1.93758 15.4274C1.31451 15.0677 0.956055 14.4468 0.956055 13.7274V1.96305C0.956055 0.880559 1.83665 0 2.91911 0H11.7036C12.7862 0 13.6668 0.880488 13.6668 1.96305V4.44294C13.6668 4.79869 13.378 5.08753 13.0222 5.08753C12.6664 5.08753 12.3778 4.79872 12.3778 4.44294V1.96305C12.3778 1.59135 12.0753 1.2889 11.7036 1.2889H4.00611L7.88897 3.53106C8.51177 3.89071 8.8705 4.51157 8.8705 5.23076V13.8441H11.7036C12.0753 13.8441 12.3778 13.5419 12.3778 13.1701V10.9962C12.3778 10.6402 12.6662 10.3516 13.0222 10.3516C13.3781 10.3516 13.6668 10.6403 13.6668 10.9962V13.1701C13.6668 14.2527 12.7862 15.1332 11.7036 15.1332H8.8705ZM14.8429 8.21102L14.1331 8.92086C13.8814 9.17255 13.8815 9.58057 14.1331 9.83229C14.2543 9.95351 14.4175 10.0209 14.5888 10.0209C14.7603 10.0209 14.9234 9.95368 15.0447 9.83229L16.8546 8.02216C17.1062 7.77052 17.1062 7.3627 16.8546 7.11105L15.0447 5.30121C14.793 5.04949 14.385 5.0496 14.1331 5.30118C13.8815 5.55261 13.8816 5.96081 14.1331 6.21232L14.8429 6.92198H10.0877C9.73162 6.92198 9.44327 7.21055 9.44327 7.56661C9.44327 7.92267 9.73165 8.21106 10.0877 8.21106H14.8429V8.21102Z" fill="#7D8FB3"/>
</g>
<defs>
<clipPath id="clip0_705_71145">
<rect width="18" height="18" fill="white"/>
</clipPath>
</defs>
</svg>
