<svg width="18" height="18" viewBox="0 0 18 18" fill="none" xmlns="http://www.w3.org/2000/svg">
<g id="vuesax/bold/bank">
<g id="bank">
<path id="Vector" d="M16.5 14.25V16.5H1.5V14.25C1.5 13.8375 1.8375 13.5 2.25 13.5H15.75C16.1625 13.5 16.5 13.8375 16.5 14.25Z" fill="#7D8FB3" stroke="#7D8FB3" stroke-width="1.5" stroke-miterlimit="10" stroke-linecap="round" stroke-linejoin="round"/>
<path id="Vector_2" d="M5.25 8.25H3.75V13.5H5.25V8.25Z" fill="#7D8FB3"/>
<path id="Vector_3" d="M8.25 8.25H6.75V13.5H8.25V8.25Z" fill="#7D8FB3"/>
<path id="Vector_4" d="M11.25 8.25H9.75V13.5H11.25V8.25Z" fill="#7D8FB3"/>
<path id="Vector_5" d="M14.25 8.25H12.75V13.5H14.25V8.25Z" fill="#7D8FB3"/>
<path id="Vector_6" d="M17.25 17.0625H0.75C0.4425 17.0625 0.1875 16.8075 0.1875 16.5C0.1875 16.1925 0.4425 15.9375 0.75 15.9375H17.25C17.5575 15.9375 17.8125 16.1925 17.8125 16.5C17.8125 16.8075 17.5575 17.0625 17.25 17.0625Z" fill="#7D8FB3"/>
<path id="Vector_7" d="M16.0275 4.31238L9.2775 1.61238C9.1275 1.55238 8.8725 1.55238 8.7225 1.61238L1.9725 4.31238C1.71 4.41738 1.5 4.72488 1.5 5.00988V7.49988C1.5 7.91238 1.8375 8.24988 2.25 8.24988H15.75C16.1625 8.24988 16.5 7.91238 16.5 7.49988V5.00988C16.5 4.72488 16.29 4.41738 16.0275 4.31238ZM9 6.37488C8.3775 6.37488 7.875 5.87238 7.875 5.24988C7.875 4.62738 8.3775 4.12488 9 4.12488C9.6225 4.12488 10.125 4.62738 10.125 5.24988C10.125 5.87238 9.6225 6.37488 9 6.37488Z" fill="#7D8FB3"/>
</g>
</g>
</svg>
