<svg width="18" height="18" viewBox="0 0 18 18" fill="none" xmlns="http://www.w3.org/2000/svg">
<g id="chalkboard-user 1" clip-path="url(#clip0_705_71179)">
<path id="Vector" d="M10.5 17.25C10.5 17.664 10.164 18 9.75 18H0.75C0.336 18 0 17.664 0 17.25C0 14.3505 2.3505 12 5.25 12C8.1495 12 10.5 14.3505 10.5 17.25ZM5.25 4.5C3.59325 4.5 2.25 5.84325 2.25 7.5C2.25 9.15675 3.59325 10.5 5.25 10.5C6.90675 10.5 8.25 9.15675 8.25 7.5C8.25 5.84325 6.90675 4.5 5.25 4.5ZM18 3.75V9.75C18 11.8208 16.3207 13.5 14.25 13.5H10.8555C10.1468 12.4455 9.14925 11.6003 7.97625 11.0798C9.054 10.2577 9.75 8.96025 9.75 7.5C9.75 5.0145 7.7355 3 5.25 3C4.437 3 3.6735 3.216 3.01575 3.59325C3.09975 1.59975 4.73625 0 6.75 0H14.25C16.3207 0 18 1.67925 18 3.75ZM15 11.25C15 10.8352 14.664 10.5 14.25 10.5H11.625C11.211 10.5 10.875 10.8352 10.875 11.25C10.875 11.6648 11.211 12 11.625 12H14.25C14.664 12 15 11.6648 15 11.25Z" fill="#FF9F43"/>
</g>
<defs>
<clipPath id="clip0_705_71179">
<rect width="18" height="18" fill="white"/>
</clipPath>
</defs>
</svg>
