<svg width="21" height="18" viewBox="0 0 21 18" fill="none" xmlns="http://www.w3.org/2000/svg">
<g id="Icon">
<path id="Vector" fill-rule="evenodd" clip-rule="evenodd" d="M14.2122 16.0977V17.2896C14.2122 17.6818 13.8939 18.0002 13.5016 18.0002C13.1094 18.0002 12.791 17.6818 12.791 17.2896V16.1052H13.9754C14.055 16.1052 14.1336 16.1024 14.2122 16.0977Z" fill="#7D8FB3"/>
<path id="Vector_2" fill-rule="evenodd" clip-rule="evenodd" d="M12.7913 16.105H6.39583C4.43359 16.105 2.84277 14.5142 2.84277 12.552V9.63184L8.25668 12.623C9.42966 13.2711 10.9418 13.2711 12.1148 12.623L12.7913 12.2497V16.105ZM14.2125 11.4643L17.5287 9.63184V12.552C17.5287 14.4346 16.0649 15.9752 14.2125 16.0974V11.4643Z" fill="#7D8FB3"/>
<path id="Vector_3" fill-rule="evenodd" clip-rule="evenodd" d="M12.791 11.1668L11.6559 11.794C10.7615 12.2886 9.60935 12.2886 8.71493 11.794L0.837573 7.44128C0.301299 7.14472 0 6.6255 0 6.08259C0 5.53874 0.301299 5.01952 0.837573 4.7239L8.71493 0.370228C9.60935 -0.123409 10.7615 -0.123409 11.6559 0.370228L19.5333 4.7239C20.0695 5.01952 20.3708 5.53874 20.3708 6.08259C20.3708 6.6255 20.0695 7.14472 19.5333 7.44128L14.2122 10.3813V9.70955C14.2122 9.521 14.1374 9.34003 14.0038 9.20738L10.6876 5.8912C10.4109 5.61359 9.95992 5.61359 9.68325 5.8912C9.40564 6.16786 9.40564 6.61886 9.68325 6.89553L12.791 10.0042V11.1668Z" fill="#7D8FB3"/>
</g>
</svg>
