<svg width="18" height="18" viewBox="0 0 18 18" fill="none" xmlns="http://www.w3.org/2000/svg">
<g id="Mask Group 18668">
<path id="3917226" d="M17.0183 10.2439L15.5933 5.11787C15.1758 3.61593 14.2682 2.29665 13.0148 1.36977C11.7614 0.442887 10.2341 -0.0384075 8.67575 0.00239631C7.11739 0.0432001 5.61739 0.60376 4.4142 1.59497C3.21101 2.58617 2.37369 3.95113 2.03534 5.47287L0.935338 10.4339C0.813309 10.9819 0.815909 11.5504 0.942947 12.0973C1.06998 12.6442 1.31822 13.1557 1.66932 13.5938C2.02043 14.032 2.46545 14.3857 2.97153 14.6289C3.47762 14.8721 4.03186 14.9985 4.59334 14.9989H5.42834C5.60096 15.846 6.06101 16.6076 6.73062 17.1545C7.40022 17.7014 8.23825 18.0002 9.10284 18.0002C9.96742 18.0002 10.8055 17.7014 11.4751 17.1545C12.1447 16.6076 12.6047 15.846 12.7773 14.9989H13.4043C13.9823 14.9988 14.5525 14.8651 15.0703 14.6083C15.5881 14.3514 16.0396 13.9784 16.3894 13.5182C16.7391 13.0581 16.9778 12.5233 17.0868 11.9556C17.1957 11.388 17.1719 10.8028 17.0173 10.2459L17.0183 10.2439ZM9.10434 16.4989C8.64047 16.4972 8.18847 16.3521 7.81022 16.0836C7.43197 15.8151 7.14596 15.4362 6.99134 14.9989H11.2153C11.0608 15.4359 10.7751 15.8145 10.3973 16.083C10.0194 16.3515 9.56786 16.4967 9.10434 16.4989ZM15.1983 12.6109C14.9891 12.8883 14.7179 13.1131 14.4065 13.2673C14.095 13.4214 13.7519 13.5007 13.4043 13.4989H4.59334C4.25611 13.4994 3.92309 13.4241 3.61887 13.2786C3.31466 13.1331 3.04705 12.9211 2.83583 12.6582C2.6246 12.3953 2.47517 12.0883 2.39858 11.7599C2.32199 11.4315 2.3202 11.0901 2.39334 10.7609L3.50434 5.79887C3.77161 4.60566 4.42958 3.53583 5.37391 2.75903C6.31823 1.98222 7.49487 1.54291 8.71722 1.51076C9.93957 1.4786 11.1377 1.85544 12.1215 2.58152C13.1054 3.3076 13.8187 4.34136 14.1483 5.51887L15.5733 10.6449C15.6675 10.9788 15.6826 11.3301 15.6173 11.6708C15.5521 12.0116 15.4083 12.3324 15.1973 12.6079L15.1983 12.6109Z" fill="#64748B"/>
</g>
</svg>
